<?xml version="1.0" encoding="UTF-8" standalone="no"?>
<svg
   version="1.0"
   width="1500.000000pt"
   height="400.000000pt"
   viewBox="0 0 1500.000000 400.000000"
   preserveAspectRatio="xMidYMid meet"
   id="svg14"
   sodipodi:docname="ecowhen_logo-name.svg"
   inkscape:version="1.1.2 (b8e25be833, 2022-02-05)"
   xmlns:inkscape="http://www.inkscape.org/namespaces/inkscape"
   xmlns:sodipodi="http://sodipodi.sourceforge.net/DTD/sodipodi-0.dtd"
   xmlns="http://www.w3.org/2000/svg"
   xmlns:svg="http://www.w3.org/2000/svg">
  <defs
     id="defs18" />
  <sodipodi:namedview
     id="namedview16"
     pagecolor="#ffffff"
     bordercolor="#666666"
     borderopacity="1.0"
     inkscape:pageshadow="2"
     inkscape:pageopacity="0.0"
     inkscape:pagecheckerboard="0"
     inkscape:document-units="pt"
     showgrid="false"
     inkscape:zoom="0.3355"
     inkscape:cx="918.03279"
     inkscape:cy="549.92548"
     inkscape:window-width="1920"
     inkscape:window-height="1001"
     inkscape:window-x="-9"
     inkscape:window-y="-9"
     inkscape:window-maximized="1"
     inkscape:current-layer="svg14" />
  <g
     transform="translate(0.000000,400.000000) scale(0.100000,-0.100000)"
     fill="#000000"
     stroke="none"
     id="g12"
     style="fill:#008000">
    <path
       d="M0 2000 l0 -2000 7500 0 7500 0 0 2000 0 2000 -7500 0 -7500 0 0 -2000z m3900 0 l0 -1900 -1900 0 -1900 0 0 1900 0 1900 1900 0 1900 0 0 -1900z m6919 613 c0 -126 -4 -264 -8 -308 -4 -44 -7 -81 -5 -83 1 -2 23 13 49 32 121 93 205 121 339 114 146 -8 231 -63 288 -185 51 -108 57 -176 58 -625 l0 -408 -179 0 -180 0 -3 408 c-3 367 -5 410 -21 439 -27 50 -61 68 -128 66 -63 -1 -81 -9 -156 -65 l-53 -39 0 -404 0 -405 -180 0 -180 0 0 845 0 845 180 0 180 0 -1 -227z m-4979 -48 l0 -155 -310 0 -310 0 0 -150 0 -150 265 0 265 0 0 -155 0 -155 -265 0 -265 0 0 -175 0 -175 325 0 325 0 0 -150 0 -150 -505 0 -505 0 0 785 0 785 490 0 490 0 0 -155z m988 -210 c67 -16 137 -48 190 -88 l32 -24 -82 -114 c-45 -63 -82 -115 -83 -117 -2 -2 -19 8 -39 22 -80 54 -166 59 -253 14 -95 -49 -146 -155 -145 -304 0 -144 46 -246 134 -298 85 -50 180 -47 273 9 32 19 61 35 65 35 8 0 140 -214 140 -227 0 -4 -22 -23 -49 -41 -189 -129 -479 -135 -668 -13 -114 74 -182 162 -230 298 -26 72 -28 90 -28 233 0 125 4 166 19 210 59 176 181 307 346 374 112 45 265 58 378 31z m1087 0 c175 -46 304 -150 380 -310 130 -270 58 -632 -159 -804 -125 -100 -317 -144 -478 -110 -77 16 -206 80 -261 129 -83 74 -155 197 -182 313 -19 79 -19 264 0 342 52 222 204 380 420 440 69 18 208 18 280 0z m4548 0 c185 -48 311 -183 352 -380 15 -70 20 -270 9 -312 l-6 -23 -354 0 c-195 0 -354 -4 -354 -9 0 -22 33 -98 56 -128 36 -48 89 -80 164 -99 55 -14 76 -15 140 -5 41 6 104 25 139 41 35 17 65 29 66 28 1 -2 28 -50 60 -107 66 -121 69 -108 -50 -166 -114 -55 -183 -70 -325 -70 -105 0 -137 4 -199 24 -185 61 -325 208 -375 396 -26 96 -31 236 -12 335 43 229 210 418 419 475 69 18 199 19 270 0z m1434 1 c131 -35 205 -129 238 -302 12 -59 15 -170 15 -490 l0 -414 -180 0 -180 0 0 393 c0 326 -3 401 -15 438 -20 58 -60 83 -132 82 -57 0 -99 -19 -168 -73 l-44 -35 -1 -402 0 -403 -180 0 -180 0 0 595 0 595 149 0 148 0 12 -75 12 -75 62 50 c71 57 158 106 213 119 60 14 173 12 231 -3z m-5024 -93 c86 -421 109 -538 127 -668 12 -82 23 -151 25 -153 1 -2 13 52 25 120 18 100 156 697 176 761 5 15 21 17 159 17 l154 0 10 -37 c34 -127 153 -637 172 -735 13 -65 26 -118 30 -118 3 0 14 57 23 128 14 100 114 626 141 740 5 22 8 22 170 22 91 0 165 -3 165 -6 0 -4 -34 -146 -75 -318 -139 -576 -174 -721 -190 -793 l-17 -73 -208 0 -209 0 -10 38 c-41 155 -132 580 -152 705 -6 43 -13 76 -15 74 -2 -1 -15 -70 -29 -152 -14 -83 -51 -266 -82 -408 l-57 -257 -205 2 -205 3 -141 565 c-78 311 -145 577 -148 593 l-7 27 178 0 179 0 16 -77z"
       id="path2"
       style="fill:#008000" />
    <path
       d="M2350 3570 c-589 -43 -1046 -184 -1362 -423 -320 -241 -583 -668 -667 -1083 -69 -342 -52 -831 45 -1329 44 -229 43 -223 72 -229 229 -48 673 -104 922 -117 480 -26 802 7 1137 117 368 121 652 346 892 709 146 219 254 535 317 923 21 128 30 600 15 784 -10 127 -57 447 -83 565 -13 61 -3 57 -188 73 -157 14 -946 21 -1100 10z m128 -415 c51 -22 80 -52 92 -97 23 -83 -20 -147 -264 -396 l-140 -142 45 -48 c25 -26 57 -59 70 -74 13 -14 89 -94 168 -177 l145 -151 208 214 c115 118 224 224 244 236 65 41 155 21 194 -43 28 -45 27 -125 -2 -163 -34 -45 -180 -204 -315 -343 l-121 -126 69 -71 c88 -92 89 -102 6 -188 l-62 -66 -184 192 c-102 106 -250 261 -330 343 -198 203 -503 526 -573 606 -32 37 -58 74 -58 83 0 16 105 136 120 136 3 0 37 -31 76 -70 38 -38 73 -70 78 -70 5 0 96 88 203 195 176 177 244 233 281 235 7 0 29 -7 50 -15z m-728 -642 c267 -273 489 -502 716 -738 128 -132 235 -243 239 -247 19 -18 -163 -221 -265 -295 -120 -87 -237 -132 -365 -140 -94 -5 -153 5 -277 48 -69 24 -71 23 -158 -65 -35 -36 -72 -66 -81 -66 -10 0 -42 21 -73 46 l-56 45 -82 -88 c-134 -143 -321 -333 -329 -333 -4 0 -49 40 -100 89 l-92 88 18 31 c10 17 103 119 207 228 103 109 188 200 188 203 0 3 -23 25 -50 49 -28 24 -50 48 -50 54 0 6 37 48 81 94 l82 83 -26 58 c-50 113 -61 169 -61 313 0 119 4 144 27 216 15 45 39 103 54 130 24 43 296 334 312 334 4 0 67 -62 141 -137z"
       id="path4"
       style="fill:#008000" />
    <path
       d="M1878 1949 c-53 -57 -128 -142 -167 -189 -78 -94 -78 -97 12 -99 20 -1 37 -6 37 -11 0 -6 -25 -58 -56 -115 -31 -58 -54 -110 -52 -116 2 -6 28 17 58 52 30 35 80 91 111 124 141 151 156 175 104 175 -34 0 -55 10 -55 26 0 8 25 62 56 119 81 151 69 160 -48 34z"
       id="path6"
       style="fill:#008000" />
    <path
       d="M7693 2061 c-81 -37 -126 -151 -126 -317 1 -248 104 -371 273 -324 45 12 92 61 122 125 21 45 23 65 23 200 0 135 -2 155 -23 200 -56 122 -158 166 -269 116z"
       id="path8"
       style="fill:#008000" />
    <path
       d="M12280 2091 c-76 -24 -118 -61 -149 -131 -38 -84 -49 -80 190 -80 l212 0 -7 43 c-10 66 -46 128 -87 149 -42 21 -122 31 -159 19z"
       id="path10"
       style="fill:#008000" />
  </g>
</svg>
