<?xml version="1.0" encoding="UTF-8" standalone="no"?>
<svg
   version="1.0"
   width="256.000000pt"
   height="256.000000pt"
   viewBox="0 0 256.000000 256.000000"
   preserveAspectRatio="xMidYMid meet"
   id="svg6"
   sodipodi:docname="favicon_noback_green.svg"
   inkscape:version="1.1.2 (0a00cf5339, 2022-02-04)"
   xmlns:inkscape="http://www.inkscape.org/namespaces/inkscape"
   xmlns:sodipodi="http://sodipodi.sourceforge.net/DTD/sodipodi-0.dtd"
   xmlns="http://www.w3.org/2000/svg"
   xmlns:svg="http://www.w3.org/2000/svg">
  <defs
     id="defs10" />
  <sodipodi:namedview
     id="namedview8"
     pagecolor="#ffffff"
     bordercolor="#666666"
     borderopacity="1.0"
     inkscape:pageshadow="2"
     inkscape:pageopacity="0.0"
     inkscape:pagecheckerboard="0"
     inkscape:document-units="pt"
     showgrid="false"
     inkscape:zoom="1.88"
     inkscape:cx="151.59574"
     inkscape:cy="155.05319"
     inkscape:window-width="1846"
     inkscape:window-height="1016"
     inkscape:window-x="0"
     inkscape:window-y="0"
     inkscape:window-maximized="1"
     inkscape:current-layer="svg6" />
  <path
     style="fill:#008000;stroke:#ff0000;stroke-width:0.0119747"
     d="m 153.15245,11.193422 c -23.9,1.5 -43.8,5 -62.200002,11 -26.499997,8.7 -45.899997,22.1 -60.999997,42 -5.9,7.8 -15.1,23.1 -16.3,27.2 -0.4,1.2 -1.1,2.8 -1.6,3.4 -1.7,2.1 -6.0000004,15.899998 -8.1000004,25.899998 -3.20000001,15.8 -3.60000001,45.1 -0.9,67 1.2,9.3 2.8,20.1 3.7,24 0.8,3.8 2,9.7 2.5,13 0.6,3.3 1.3000004,6.3 1.7000004,6.7 0.9,0.9 28.2,5.3 45.7,7.3 19.499997,2.3 51.299999,3 65.999999,1.6 23.6,-2.3 48.6,-10 62.5,-19.1 1.4,-0.9 4.5,-3 7,-4.6 11.6,-7.5 27.8,-25.9 37.2,-42.4 9.9,-17.2 17.4,-44.2 19.9,-71 1.3,-14.399998 0.7,-43.699998 -1.2,-56.499998 -2.7,-18.9 -5.1,-32.1 -5.9,-32.9 -2.3,-2.3 -64,-4.1000005 -89,-2.6 z"
     id="path18580" />
  <g
     transform="translate(0.000000,256.000000) scale(0.100000,-0.100000)"
     fill="#000000"
     stroke="none"
     id="g4"
     style="fill:#008000;fill-opacity:1;stroke:none;stroke-opacity:1" />
  <g
     id="g18804"
     transform="matrix(1.1153421,0,0,1.1503444,-4.7892194,-32.926221)">
    <path
       style="fill:#ffffff;stroke:#ff0000;stroke-width:0.0119747"
       d="m 126.6,131 c 19.2,19.3 35.1,35.3 35.3,35.5 0.6,0.7 -2.8,4.9 -9.7,11.9 -11.6,11.9 -27.7,17.5 -40.7,14.3 -3.3,-0.8 -7.4,-2.1 -9.2,-2.8 -3,-1.2 -3.3,-1.1 -7,2.7 -7,7.2 -6.8,7.1 -11.5,3.4 l -4.1,-3.3 -12.6,13.1 c -7,7.3 -13.1,13.2 -13.5,13.2 -1.1,0 -10.8,-8.8 -12,-10.7 -0.6,-1.2 2.5,-4.9 12.9,-15.3 l 13.7,-13.7 -3.6,-2.8 c -2,-1.5 -3.6,-3.1 -3.6,-3.6 0,-0.5 2.5,-3.2 5.5,-6 l 5.4,-5.1 -1.5,-3 c -3.3,-6.4 -4.5,-11.5 -4.5,-19.8 0,-6.9 0.5,-9.9 2.7,-15.9 2.5,-6.7 3.7,-8.3 12.7,-17.2 5.5,-5.5 10.1,-9.9 10.2,-9.9 0.1,0 15.8,15.8 35.1,35 z"
       id="path18586" />
    <path
       style="fill:#ffffff;stroke:#ff0000;stroke-width:0.0119747"
       d="m 149.6,65.9 c 3.7,2.2 5,6.8 3.1,11.1 -0.6,1.7 -6.7,8.5 -13.4,15.3 l -12.2,12.2 13.9,14.1 13.9,14 13.8,-13.9 c 14.9,-14.9 16.3,-16 20.4,-15.9 6.3,0.2 10.4,6.4 8.3,12.6 -0.5,1.4 -7.3,9 -15.2,16.9 l -14.2,14.4 5,4.7 c 5.6,5.3 5.6,5.8 -0.5,11.6 l -3.6,3.5 L 132,129.1 C 111.6,108.6 95,91.3 95,90.6 c 0,-0.7 1.8,-3 4,-5.1 l 4,-3.9 4.2,3.9 c 2.4,2.2 4.4,4.3 4.6,4.7 0.8,1.6 2.2,0.4 14.3,-11.8 C 141.3,63 143.2,62 149.6,65.9 Z"
       id="path18584" />
  </g>
  <rect
     style="fill:#000000;fill-opacity:0;stroke-width:0.75"
     id="rect10561"
     width="197.27104"
     height="199.41708"
     x="4.7004952"
     y="21.139851" />
  <rect
     style="fill:#000000;fill-opacity:0;stroke-width:0.75"
     id="rect10563"
     width="9.4108906"
     height="36.290844"
     x="4.7004952"
     y="21.139851" />
  <rect
     style="fill:#000000;fill-opacity:0;stroke-width:0.75"
     id="rect10565"
     width="180.42204"
     height="206.80693"
     x="39.287128"
     y="19.467821" />
  <rect
     style="fill:#000000;fill-opacity:0;stroke-width:0.75"
     id="rect10572"
     width="45.97401"
     height="65.043312"
     x="167.31931"
     y="20.480198" />
  <rect
     style="fill:#000000;fill-opacity:0;stroke-width:0.75"
     id="rect10596"
     width="43.319321"
     height="58.384899"
     x="169.97401"
     y="27.138615" />
  <rect
     style="fill:#ffff00;fill-opacity:0;stroke-width:0.75"
     id="rect10723"
     width="45.974014"
     height="65.043312"
     x="167.31931"
     y="20.480198" />
  <rect
     style="fill:#ffff00;fill-opacity:0;stroke-width:0.75"
     id="rect10850"
     width="43.319321"
     height="58.384899"
     x="169.97401"
     y="27.138615" />
  <path
     style="fill:#008000;stroke:#ff0000;stroke-width:0.0119747"
     d="m 123.56888,120.6757 c 0.35588,0 0.42359,0.3452 0.30616,1.56737 -0.11365,1.1828 -0.72168,2.59949 -2.48145,5.78174 -1.2821,2.31846 -3.1668,5.84036 -4.18799,7.82666 -2.20174,4.28261 -2.15619,4.4519 1.24072,4.68457 5.52758,0.37862 5.38249,1.07033 -1.77686,8.49611 -3.60891,3.74321 -7.60257,8.1566 -10.60839,11.72314 -1.02804,1.2198 -2.73126,3.10913 -3.78516,4.19824 -1.99932,2.06612 -2.727538,2.4224 -2.727538,1.33594 0,-0.77972 0.649148,-2.0855 5.150398,-10.37695 1.91894,-3.53476 3.39975,-6.51579 3.2915,-6.62403 -0.10824,-0.10824 -2.05866,-0.29962 -4.33448,-0.42627 -2.27581,-0.12664 -4.224698,-0.31796 -4.331538,-0.4248 -0.37994,-0.37995 0.52151,-1.67951 4.204098,-6.0586 8.92652,-10.61483 19.16478,-21.70312 20.04053,-21.70312 z"
     id="path17878" />
</svg>
