<?xml version="1.0" encoding="UTF-8" standalone="no"?>
<svg
   version="1.0"
   width="256.000000pt"
   height="256.000000pt"
   viewBox="0 0 256.000000 256.000000"
   preserveAspectRatio="xMidYMid meet"
   id="svg6"
   sodipodi:docname="favicon_noback_green.svg"
   inkscape:version="1.1.2 (b8e25be833, 2022-02-05)"
   xmlns:inkscape="http://www.inkscape.org/namespaces/inkscape"
   xmlns:sodipodi="http://sodipodi.sourceforge.net/DTD/sodipodi-0.dtd"
   xmlns="http://www.w3.org/2000/svg"
   xmlns:svg="http://www.w3.org/2000/svg">
  <defs
     id="defs10" />
  <sodipodi:namedview
     id="namedview8"
     pagecolor="#ffffff"
     bordercolor="#666666"
     borderopacity="1.0"
     inkscape:pageshadow="2"
     inkscape:pageopacity="0.0"
     inkscape:pagecheckerboard="0"
     inkscape:document-units="pt"
     showgrid="false"
     inkscape:zoom="2.3671875"
     inkscape:cx="170.66667"
     inkscape:cy="168.55446"
     inkscape:window-width="1920"
     inkscape:window-height="1001"
     inkscape:window-x="-9"
     inkscape:window-y="-9"
     inkscape:window-maximized="1"
     inkscape:current-layer="svg6" />
  <g
     transform="translate(0.000000,256.000000) scale(0.100000,-0.100000)"
     fill="#000000"
     stroke="none"
     id="g4">
    <path
       d="M1570 2420 c-239 -15 -438 -50 -622 -110 -265 -87 -459 -221 -610 -420 -59 -78 -151 -231 -163 -272 -4 -12 -11 -28 -16 -34 -17 -21 -60 -159 -81 -259 -32 -158 -36 -451 -9 -670 12 -93 28 -201 37 -240 8 -38 20 -97 25 -130 6 -33 13 -63 17 -67 9 -9 282 -53 457 -73 195 -23 513 -30 660 -16 236 23 486 100 625 191 14 9 45 30 70 46 116 75 278 259 372 424 99 172 174 442 199 710 13 144 7 437 -12 565 -27 189 -51 321 -59 329 -23 23 -640 41 -890 26z m445 -181 c-4 -11 -24 -51 -46 -88 -21 -37 -39 -73 -39 -80 0 -6 15 -11 35 -11 22 0 35 -5 35 -13 0 -7 -25 -37 -56 -67 -30 -30 -81 -86 -112 -124 -61 -74 -77 -76 -37 -5 48 87 65 118 65 124 0 3 -20 5 -45 5 -25 0 -45 3 -45 6 0 11 232 274 241 274 6 0 7 -9 4 -21z m-519 -338 c37 -22 50 -68 31 -111 -6 -17 -67 -85 -134 -153 l-122 -122 139 -141 139 -140 138 139 c149 149 163 160 204 159 63 -2 104 -64 83 -126 -5 -14 -73 -90 -152 -169 l-142 -144 50 -47 c56 -53 56 -58 -5 -116 l-36 -35 -369 374 c-204 205 -370 378 -370 385 0 7 18 30 40 51 l40 39 42 -39 c24 -22 44 -43 46 -47 8 -16 22 -4 143 118 152 154 171 164 235 125z m-230 -651 c192 -193 351 -353 353 -355 6 -7 -28 -49 -97 -119 -116 -119 -277 -175 -407 -143 -33 8 -74 21 -92 28 -30 12 -33 11 -70 -27 -70 -72 -68 -71 -115 -34 l-41 33 -126 -131 c-70 -73 -131 -132 -135 -132 -11 0 -108 88 -120 107 -6 12 25 49 129 153 l137 137 -36 28 c-20 15 -36 31 -36 36 0 5 25 32 55 60 l54 51 -15 30 c-33 64 -45 115 -45 198 0 69 5 99 27 159 25 67 37 83 127 172 55 55 101 99 102 99 1 0 158 -158 351 -350z"
       id="path2" />
  </g>
  <path
     style="fill:#008000;stroke:#ff0000;stroke-width:0.0159663"
     d="m 131.16832,324.78285 c -9.4822,-0.15211 -26.80571,-0.94618 -35.907594,-1.64592 -23.5898,-1.81357 -73.985004,-9.41982 -75.458094,-11.38904 -0.514124,-0.68729 -1.015471,-3.03444 -4.553668,-21.31885 -6.2917874,-32.5142 -8.7466685,-58.40174 -8.1321065,-85.75577 0.4714648,-20.98481 1.8854662,-33.82561 5.1868035,-47.10231 2.903769,-11.67784 6.434583,-22.33883 8.871437,-26.78655 0.815826,-1.48905 1.954868,-3.96033 2.531205,-5.49175 2.948604,-7.83494 15.938362,-28.797714 24.499361,-39.536884 4.79751,-6.018138 17.255386,-18.496938 23.187075,-23.226019 17.907124,-14.276575 39.464161,-24.803335 66.112211,-32.284 34.05772,-9.560714 70.23154,-12.967314 126.04975,-11.870491 35.85813,0.70461 58.01297,1.965952 63.68009,3.625502 0.91083,0.266726 1.71066,3.253748 3.49758,13.061938 3.5317,19.3851 5.7363,35.887897 6.65919,49.848185 0.83251,12.593232 0.70439,48.521879 -0.20412,57.240929 -4.08479,39.20213 -14.22522,73.54058 -28.82955,97.6253 -9.67243,15.95128 -24.94475,34.2364 -37.99485,45.49018 -4.89379,4.22017 -17.34347,12.71579 -24.54488,16.74936 -19.56243,10.95706 -54.61346,20.46434 -81.71107,22.1634 -7.55136,0.47348 -23.17552,0.75941 -32.93877,0.60279 z M 82.383423,281.87459 c 5.608306,-5.63433 13.275996,-13.46199 17.03931,-17.39481 l 6.842397,-7.15059 1.0161,0.81395 c 6.33172,5.07205 8.53951,6.51693 9.95797,6.51693 1.97122,0 2.6579,-0.50797 8.86279,-6.5562 2.90593,-2.83256 5.6891,-5.27883 6.18482,-5.43617 0.57675,-0.18305 2.9336,0.3884 6.54488,1.5869 10.22676,3.39403 12.44439,3.82341 19.79537,3.83271 9.22715,0.0117 15.47382,-1.44949 24.4898,-5.72846 8.91157,-4.22942 15.84777,-9.62956 24.76151,-19.27798 5.68252,-6.15087 8.36789,-9.73594 8.13269,-10.85742 -0.13301,-0.63418 -93.6251,-94.43574 -94.12223,-94.43378 -0.57511,0.002 -22.855483,22.49771 -24.685643,24.92392 -2.497111,3.31039 -5.211568,8.92098 -6.948634,14.36232 -2.15465,6.74941 -2.376411,8.42739 -2.372773,17.95379 0.0046,12.09411 0.976813,16.74529 5.518232,26.40023 l 2.006431,4.26563 -7.043155,6.85438 c -4.490561,4.3702 -7.043156,7.16149 -7.043156,7.70178 0,1.34154 0.940462,2.36837 5.226553,5.70654 l 4.011359,3.1242 -15.929528,16.06273 c -15.000983,15.12642 -19.499803,20.23404 -19.499803,22.1386 0,1.08109 10.923854,11.52842 14.773865,14.12939 0.574467,0.3881 1.323364,0.70563 1.664207,0.70563 0.340848,0 5.208333,-4.6099 10.816638,-10.24422 z M 230.72758,216.81848 c 2.80507,-2.8462 5.23715,-5.61916 5.40462,-6.16214 0.16747,-0.54297 0.17437,-1.68077 0.0153,-2.52844 -0.23764,-1.26675 -1.30323,-2.52357 -5.98371,-7.05755 l -5.69458,-5.51633 15.03614,-15.33896 c 15.71265,-16.02906 22.71179,-23.74293 23.80409,-26.23486 0.80751,-1.84223 0.888,-6.8456 0.14449,-8.98293 -0.9217,-2.6496 -3.56421,-5.59413 -6.16015,-6.8642 -1.8776,-0.91862 -2.95596,-1.15074 -5.41017,-1.16455 -5.54487,-0.0312 -6.39579,0.64573 -28.62993,22.77599 L 206.56022,176.36 191.56664,161.26251 c -8.24648,-8.30362 -16.50329,-16.66091 -18.34849,-18.57175 l -3.35489,-3.47426 13.08875,-13.21221 c 14.67296,-14.81136 20.07043,-20.97874 21.17522,-24.19571 1.84574,-5.374466 0.20503,-10.891329 -4.11062,-13.821929 -4.49917,-3.055221 -8.15761,-3.554856 -11.86812,-1.620831 -3.50572,1.827287 -7.11028,5.044096 -20.86136,18.61725 -12.97844,12.8105 -16.0537,15.64108 -16.9629,15.61326 -0.19648,-0.006 -3.08793,-2.6674 -6.42546,-5.91419 -3.33751,-3.24679 -6.29547,-5.90326 -6.57324,-5.90326 -0.58547,0 -8.51376,8.01753 -9.88138,9.9926 -0.50748,0.7329 -0.9227,1.6028 -0.9227,1.93312 0,1.31066 12.28923,14.11497 58.29116,60.73434 16.39251,16.61255 32.0668,32.53334 34.83175,35.37954 2.76495,2.84621 5.24227,5.17492 5.50513,5.17492 0.26288,0 2.77302,-2.32871 5.57809,-5.17492 z m 9.26427,-117.861384 c 1.4052,-1.452146 3.67639,-3.970957 5.0471,-5.59736 4.00776,-4.755382 9.33233,-10.639411 14.14422,-15.630363 9.5458,-9.90102 9.73877,-10.823925 2.36866,-11.328748 -4.52921,-0.310229 -4.58877,-0.535268 -1.65312,-6.245407 1.36158,-2.648407 3.87424,-7.344517 5.5837,-10.435802 2.34636,-4.243007 3.15731,-6.132515 3.30884,-7.709571 0.15658,-1.62958 0.0669,-2.089053 -0.4076,-2.089053 -1.16766,0 -14.82012,14.784191 -26.72214,28.937294 -4.91012,5.838794 -6.11234,7.571166 -5.60575,8.077759 0.14245,0.142456 2.74172,0.397167 5.77614,0.566022 3.03442,0.168858 5.63522,0.425099 5.77954,0.569422 0.14433,0.144323 -1.83099,4.118516 -4.38958,8.831531 -6.00166,11.055276 -6.86542,12.795983 -6.86542,13.83561 0,1.44862 0.96965,0.97349 3.63541,-1.781334 z"
     id="path3430"
     transform="scale(0.75)" />
  <path
     style="fill:#00b200;fill-opacity:1;stroke:#ff0000;stroke-width:0.0159663"
     d="M 118.07261,324.19352 C 99.64462,323.43174 89.006397,322.55845 71.815182,320.39627 47.11171,317.28926 21.254761,312.90888 19.956957,311.61108 19.751732,311.40586 18.751025,307.07872 17.733164,301.99521 12.660623,276.66142 10.17948,260.62418 8.3623786,241.42574 7.4177747,231.4456 7.2844021,194.90374 8.157312,185.24092 10.431111,160.07075 16.16648,139.85573 26.914544,119.12871 31.079982,111.09591 39.779021,97.357172 45.905643,89.135314 51.831065,81.183463 64.085992,68.687225 72.615346,61.899668 88.280975,49.433153 109.07534,39.034399 132.4683,31.968667 169.6715,20.731618 209.18751,17.048014 273.74257,18.79936 c 34.35125,0.931932 52.91412,2.278341 53.93256,3.911856 0.92225,1.479251 4.01074,17.80139 6.23724,32.962762 3.26633,22.242144 4.02749,35.293903 3.70061,63.454732 -0.18794,16.19156 -0.38796,21.17979 -1.08409,27.03631 -4.91003,41.30776 -15.84665,75.13149 -32.1677,99.48515 -9.26808,13.82947 -24.1966,31.04521 -34.20937,39.45063 -7.5877,6.36964 -21.89546,15.70447 -29.9934,19.56861 -17.59846,8.39757 -42.65516,15.3846 -65.47855,18.25863 -12.39384,1.56069 -36.45412,2.09857 -56.60726,1.26548 z M 89.233392,275.02283 c 9.347671,-9.41701 17.115348,-17.12184 17.261508,-17.12184 0.14615,0 1.14756,0.72645 2.22535,1.61433 4.66301,3.84138 6.88059,5.14475 8.75342,5.14475 1.97671,0 2.35241,-0.28659 10.64793,-8.12229 2.15797,-2.03835 4.24906,-3.70578 4.64686,-3.70539 0.39781,3.9e-4 4.09907,1.03905 8.22502,2.30815 9.1206,2.80539 13.05054,3.3885 20.37946,3.02384 11.08739,-0.55166 20.14985,-3.74267 30.88459,-10.87487 7.54961,-5.01598 23.80443,-21.86376 23.81762,-24.68646 0.005,-1.02596 -93.18549,-94.8531 -94.20056,-94.84432 -1.0555,0.009 -23.962764,23.48046 -26.020176,26.66089 -2.797958,4.3252 -4.936681,9.54599 -7.434439,18.14804 -0.72843,2.50864 -0.731932,21.52255 -0.0046,25.13531 0.82078,4.07707 2.528642,8.98498 4.704068,13.51815 l 2.027262,4.22442 -6.913271,6.99844 c -5.294089,5.35932 -6.913255,7.25039 -6.913255,8.0742 0,1.18148 2.213479,3.46212 6.471389,6.66775 l 2.458182,1.85067 -8.607716,8.69292 c -21.332671,21.54383 -26.513274,27.2799 -26.513274,29.35608 0,0.62173 1.56383,2.46623 4.752475,5.60542 7.137373,7.02669 10.043548,9.42018 11.462911,9.44072 0.62385,0.009 6.023017,-5.15461 17.889293,-17.10891 z M 227.92978,219.82755 c 1.36957,-1.19122 3.82585,-3.67184 5.45839,-5.51249 2.47891,-2.79491 2.96827,-3.59156 2.96827,-4.83222 0,-0.81707 -0.21067,-1.9008 -0.46815,-2.4083 -0.25747,-0.5075 -2.86916,-3.34705 -5.80373,-6.31011 l -5.33559,-5.38739 9.12035,-9.18687 c 12.86596,-12.95982 22.324,-22.89698 26.17611,-27.50214 2.81107,-3.36063 3.37977,-4.30786 3.79913,-6.32788 1.04435,-5.03063 -0.25731,-9.25257 -3.85464,-12.50254 -2.5494,-2.30323 -4.29236,-2.93111 -8.21434,-2.95913 -5.5248,-0.0395 -5.3686,-0.16298 -28.55088,22.5771 l -16.72249,16.40351 -16.66107,-16.75803 c -9.16358,-9.21691 -17.3015,-17.46068 -18.08426,-18.31949 l -1.42319,-1.56148 12.46533,-12.80156 c 17.70687,-18.18448 20.49024,-21.44619 21.65873,-25.38092 1.83146,-6.167209 -0.57163,-11.411699 -6.61414,-14.434645 -3.92558,-1.963888 -6.35668,-2.024385 -9.89495,-0.246233 -3.2779,1.647305 -5.68631,3.778099 -20.02787,17.719308 -14.38399,13.98245 -16.78779,16.17931 -17.51585,16.008 -0.3049,-0.0717 -3.24756,-2.64925 -6.53923,-5.7278 -3.29167,-3.07855 -6.23257,-5.59736 -6.53534,-5.59736 -0.65354,0 -9.41326,8.73076 -10.21997,10.18618 -0.94864,1.71148 -0.68445,2.37335 2.29846,5.75833 8.06278,9.1496 94.72592,97.27001 95.66142,97.27001 0.20315,0 1.48992,-0.97463 2.8595,-2.16585 z M 239.34357,99.797916 c 1.02902,-0.989689 4.62739,-4.928954 7.99636,-8.75392 3.36898,-3.824965 8.38394,-9.336007 11.14435,-12.246765 6.35119,-6.697108 8.288,-9.123874 8.288,-10.384657 0,-1.323659 -0.96645,-1.782778 -4.47972,-2.128133 -4.15628,-0.408561 -4.48795,-0.637715 -3.78925,-2.618044 0.30908,-0.876039 2.44871,-5.103914 4.75472,-9.395275 2.30602,-4.291361 4.51534,-8.614243 4.90961,-9.606403 0.87641,-2.205471 0.95493,-4.743927 0.14673,-4.743927 -1.89436,0 -32.38038,34.261705 -32.38038,36.390679 0,0.870413 0.92712,1.075643 6.54786,1.449467 2.32343,0.154529 4.36415,0.362675 4.53493,0.462553 0.34723,0.203068 -1.65527,4.274609 -7.0289,14.29136 -4.63556,8.640979 -4.87544,11.352469 -0.64431,7.283065 z"
     id="path5969"
     transform="scale(0.75)" />
</svg>
